<svg xmlns="http://www.w3.org/2000/svg" viewBox="0 0 1024 1024" width="1024" height="1024"><defs></defs><path d="M 924.00,512.00 L 923.96,601.21 L 923.84,629.70 L 923.65,650.40 L 923.37,667.24 L 923.02,681.69 L 922.59,694.46 L 922.08,705.99 L 921.48,716.53 L 920.81,726.28 L 920.07,735.37 L 919.24,743.90 L 918.33,751.94 L 917.34,759.55 L 916.26,766.77 L 915.11,773.66 L 913.88,780.24 L 912.56,786.53 L 911.16,792.56 L 909.67,798.36 L 908.10,803.93 L 906.45,809.29 L 904.71,814.45 L 902.88,819.43 L 900.96,824.24 L 898.96,828.88 L 896.87,833.35 L 894.68,837.68 L 892.40,841.86 L 890.03,845.91 L 887.56,849.81 L 885.00,853.59 L 882.34,857.24 L 879.58,860.77 L 876.71,864.18 L 873.74,867.48 L 870.67,870.67 L 867.48,873.74 L 864.18,876.71 L 860.77,879.58 L 857.24,882.34 L 853.59,885.00 L 849.81,887.56 L 845.91,890.03 L 841.86,892.40 L 837.68,894.68 L 833.35,896.87 L 828.88,898.96 L 824.24,900.96 L 819.43,902.88 L 814.45,904.71 L 809.29,906.45 L 803.93,908.10 L 798.36,909.67 L 792.56,911.16 L 786.53,912.56 L 780.24,913.88 L 773.66,915.11 L 766.77,916.26 L 759.55,917.34 L 751.94,918.33 L 743.90,919.24 L 735.37,920.07 L 726.28,920.81 L 716.53,921.48 L 705.99,922.08 L 694.46,922.59 L 681.69,923.02 L 667.24,923.37 L 650.40,923.65 L 629.70,923.84 L 601.21,923.96 L 512.00,924.00 L 422.79,923.96 L 394.30,923.84 L 373.60,923.65 L 356.76,923.37 L 342.31,923.02 L 329.54,922.59 L 318.01,922.08 L 307.47,921.48 L 297.72,920.81 L 288.63,920.07 L 280.10,919.24 L 272.06,918.33 L 264.45,917.34 L 257.23,916.26 L 250.34,915.11 L 243.76,913.88 L 237.47,912.56 L 231.44,911.16 L 225.64,909.67 L 220.07,908.10 L 214.71,906.45 L 209.55,904.71 L 204.57,902.88 L 199.76,900.96 L 195.12,898.96 L 190.65,896.87 L 186.32,894.68 L 182.14,892.40 L 178.09,890.03 L 174.19,887.56 L 170.41,885.00 L 166.76,882.34 L 163.23,879.58 L 159.82,876.71 L 156.52,873.74 L 153.33,870.67 L 150.26,867.48 L 147.29,864.18 L 144.42,860.77 L 141.66,857.24 L 139.00,853.59 L 136.44,849.81 L 133.97,845.91 L 131.60,841.86 L 129.32,837.68 L 127.13,833.35 L 125.04,828.88 L 123.04,824.24 L 121.12,819.43 L 119.29,814.45 L 117.55,809.29 L 115.90,803.93 L 114.33,798.36 L 112.84,792.56 L 111.44,786.53 L 110.12,780.24 L 108.89,773.66 L 107.74,766.77 L 106.66,759.55 L 105.67,751.94 L 104.76,743.90 L 103.93,735.37 L 103.19,726.28 L 102.52,716.53 L 101.92,705.99 L 101.41,694.46 L 100.98,681.69 L 100.63,667.24 L 100.35,650.40 L 100.16,629.70 L 100.04,601.21 L 100.00,512.00 L 100.04,422.79 L 100.16,394.30 L 100.35,373.60 L 100.63,356.76 L 100.98,342.31 L 101.41,329.54 L 101.92,318.01 L 102.52,307.47 L 103.19,297.72 L 103.93,288.63 L 104.76,280.10 L 105.67,272.06 L 106.66,264.45 L 107.74,257.23 L 108.89,250.34 L 110.12,243.76 L 111.44,237.47 L 112.84,231.44 L 114.33,225.64 L 115.90,220.07 L 117.55,214.71 L 119.29,209.55 L 121.12,204.57 L 123.04,199.76 L 125.04,195.12 L 127.13,190.65 L 129.32,186.32 L 131.60,182.14 L 133.97,178.09 L 136.44,174.19 L 139.00,170.41 L 141.66,166.76 L 144.42,163.23 L 147.29,159.82 L 150.26,156.52 L 153.33,153.33 L 156.52,150.26 L 159.82,147.29 L 163.23,144.42 L 166.76,141.66 L 170.41,139.00 L 174.19,136.44 L 178.09,133.97 L 182.14,131.60 L 186.32,129.32 L 190.65,127.13 L 195.12,125.04 L 199.76,123.04 L 204.57,121.12 L 209.55,119.29 L 214.71,117.55 L 220.07,115.90 L 225.64,114.33 L 231.44,112.84 L 237.47,111.44 L 243.76,110.12 L 250.34,108.89 L 257.23,107.74 L 264.45,106.66 L 272.06,105.67 L 280.10,104.76 L 288.63,103.93 L 297.72,103.19 L 307.47,102.52 L 318.01,101.92 L 329.54,101.41 L 342.31,100.98 L 356.76,100.63 L 373.60,100.35 L 394.30,100.16 L 422.79,100.04 L 512.00,100.00 L 601.21,100.04 L 629.70,100.16 L 650.40,100.35 L 667.24,100.63 L 681.69,100.98 L 694.46,101.41 L 705.99,101.92 L 716.53,102.52 L 726.28,103.19 L 735.37,103.93 L 743.90,104.76 L 751.94,105.67 L 759.55,106.66 L 766.77,107.74 L 773.66,108.89 L 780.24,110.12 L 786.53,111.44 L 792.56,112.84 L 798.36,114.33 L 803.93,115.90 L 809.29,117.55 L 814.45,119.29 L 819.43,121.12 L 824.24,123.04 L 828.88,125.04 L 833.35,127.13 L 837.68,129.32 L 841.86,131.60 L 845.91,133.97 L 849.81,136.44 L 853.59,139.00 L 857.24,141.66 L 860.77,144.42 L 864.18,147.29 L 867.48,150.26 L 870.67,153.33 L 873.74,156.52 L 876.71,159.82 L 879.58,163.23 L 882.34,166.76 L 885.00,170.41 L 887.56,174.19 L 890.03,178.09 L 892.40,182.14 L 894.68,186.32 L 896.87,190.65 L 898.96,195.12 L 900.96,199.76 L 902.88,204.57 L 904.71,209.55 L 906.45,214.71 L 908.10,220.07 L 909.67,225.64 L 911.16,231.44 L 912.56,237.47 L 913.88,243.76 L 915.11,250.34 L 916.26,257.23 L 917.34,264.45 L 918.33,272.06 L 919.24,280.10 L 920.07,288.63 L 920.81,297.72 L 921.48,307.47 L 922.08,318.01 L 922.59,329.54 L 923.02,342.31 L 923.37,356.76 L 923.65,373.60 L 923.84,394.30 L 923.96,422.79 Z" fill="#191F29"/><g fill="none" stroke-linecap="round"><path d="M 276 384 H 430 C 580 384 590 262 748 262" stroke="#EEF2F7" stroke-width="132"/><path d="M 314 578 H 430 C 580 578 590 712 710 712" stroke="#E9A63F" stroke-width="208"/></g></svg>